<?xml version="1.0" standalone="no"?>
<!DOCTYPE svg PUBLIC "-//W3C//DTD SVG 20010904//EN"
 "http://www.w3.org/TR/2001/REC-SVG-20010904/DTD/svg10.dtd">
<svg version="1.0" xmlns="http://www.w3.org/2000/svg"
 width="1534.000000pt" height="978.000000pt" viewBox="0 0 1534.000000 978.000000"
 preserveAspectRatio="xMidYMid meet">

<g transform="translate(0.000000,978.000000) scale(0.100000,-0.100000)"
fill="#000000" stroke="none">
<path d="M7153 7616 c-91 -18 -164 -41 -233 -77 -79 -40 -106 -60 -178 -131
-116 -114 -192 -257 -229 -428 -28 -130 -25 -423 5 -544 81 -323 279 -523 598
-603 108 -27 363 -24 473 5 289 76 496 285 571 578 43 167 43 427 0 601 -73
295 -281 509 -567 584 -102 26 -337 34 -440 15z m338 -310 c76 -23 129 -55
185 -110 105 -106 147 -235 147 -461 1 -234 -38 -363 -144 -480 -143 -156
-418 -186 -593 -66 -108 75 -182 191 -212 331 -21 100 -21 311 0 410 57 260
248 411 501 394 39 -2 91 -11 116 -18z"/>
<path d="M4695 7580 c-337 -60 -578 -267 -684 -585 -16 -49 -34 -125 -40 -168
-7 -52 -11 -452 -11 -1177 0 -1199 0 -1197 -57 -1302 -48 -89 -123 -129 -238
-130 -256 -1 -387 278 -226 481 16 20 53 50 83 67 45 25 64 29 128 29 66 0 82
-4 133 -33 l57 -32 0 414 0 414 -112 7 c-309 18 -568 -74 -789 -282 -245 -231
-360 -536 -328 -870 23 -253 115 -448 294 -627 209 -209 455 -309 760 -310
178 0 324 34 480 112 289 144 462 376 542 727 15 61 17 216 22 1245 l6 1175
23 43 c30 56 93 87 157 77 54 -8 89 -34 118 -88 l22 -42 3 -862 3 -863 375 0
375 0 -4 913 c-3 903 -3 913 -26 1011 -46 207 -122 349 -249 468 -185 174
-497 246 -817 188z"/>
<path d="M9300 7289 l0 -310 -70 55 c-96 75 -161 99 -281 104 -164 7 -276 -36
-385 -147 -113 -115 -167 -276 -167 -501 0 -242 54 -401 181 -528 197 -196
479 -201 678 -11 l64 62 0 -86 0 -87 160 0 160 0 0 880 0 880 -170 0 -170 0 0
-311z m-160 -437 c105 -51 148 -141 157 -329 11 -223 -45 -361 -172 -419 -93
-44 -196 -28 -275 43 -83 74 -116 193 -108 387 7 158 50 253 139 308 83 52
165 55 259 10z"/>
<path d="M9970 7445 l0 -155 170 0 170 0 0 155 0 155 -170 0 -170 0 0 -155z"/>
<path d="M11270 7133 c-84 -17 -178 -72 -254 -148 l-45 -46 -3 88 -3 88 -157
3 -158 3 0 -641 0 -640 169 0 169 0 4 408 c5 448 8 471 68 544 72 87 221 119
311 66 98 -57 109 -123 109 -655 l0 -363 165 0 165 0 0 468 c0 294 -4 490 -11
528 -15 83 -64 169 -121 215 -78 61 -145 82 -273 85 -60 1 -121 0 -135 -3z"/>
<path d="M9970 6480 l0 -640 170 0 170 0 0 640 0 640 -170 0 -170 0 0 -640z"/>
<path d="M6530 5423 c0 -4 141 -400 313 -880 l312 -873 186 0 185 0 294 818
c161 449 304 845 317 880 l23 62 -187 -2 -186 -3 -217 -650 c-210 -630 -217
-649 -229 -615 -6 19 -107 312 -224 650 l-212 615 -187 3 c-104 1 -188 -1
-188 -5z"/>
<path d="M8300 5275 l0 -155 165 0 165 0 0 155 0 155 -165 0 -165 0 0 -155z"/>
<path d="M10350 5275 l0 -155 165 0 165 0 0 155 0 155 -165 0 -165 0 0 -155z"/>
<path d="M9300 4960 c-113 -14 -200 -51 -268 -113 -60 -56 -89 -104 -108 -180
-32 -123 1 -241 92 -327 77 -73 175 -111 463 -181 186 -45 217 -60 230 -106
22 -78 -25 -135 -128 -159 -172 -41 -323 14 -367 134 -10 26 -19 48 -20 50 -2
3 -253 -33 -301 -44 -13 -2 -23 -10 -23 -17 0 -33 66 -144 117 -198 67 -70
130 -109 233 -141 67 -21 94 -23 255 -23 166 1 186 3 256 26 219 74 340 250
308 450 -28 173 -139 252 -472 333 -204 50 -304 83 -327 108 -13 14 -20 36
-20 59 0 69 73 102 225 102 69 0 101 -4 136 -20 46 -21 91 -68 104 -111 5 -16
12 -21 28 -17 12 3 80 16 150 29 70 13 131 26 134 30 12 12 -60 138 -107 186
-63 64 -148 105 -264 125 -91 15 -229 18 -326 5z"/>
<path d="M11505 4964 c-187 -31 -349 -130 -439 -269 -38 -58 -80 -160 -96
-230 -13 -56 -15 -205 -5 -281 37 -266 204 -448 474 -515 109 -27 281 -23 381
9 173 56 324 199 393 372 78 197 56 461 -52 625 -121 184 -298 283 -520 290
-58 2 -119 1 -136 -1z m248 -297 c103 -61 157 -164 165 -319 8 -161 -20 -257
-100 -343 -60 -66 -116 -90 -213 -90 -70 0 -87 4 -133 30 -100 54 -154 141
-174 279 -30 210 41 384 186 453 44 21 62 24 137 21 71 -3 93 -9 132 -31z"/>
<path d="M13143 4956 c-84 -21 -161 -65 -234 -134 l-69 -64 0 91 0 91 -155 0
-155 0 0 -635 0 -635 164 0 164 0 4 408 c4 361 7 413 23 459 36 106 123 171
239 180 108 9 185 -42 217 -142 8 -28 13 -166 16 -472 l5 -433 164 0 164 0 0
378 c-1 577 -12 677 -89 777 -85 113 -291 171 -458 131z"/>
<path d="M8300 4305 l0 -635 165 0 165 0 0 635 0 635 -165 0 -165 0 0 -635z"/>
<path d="M10350 4305 l0 -635 165 0 165 0 0 635 0 635 -165 0 -165 0 0 -635z"/>
</g>
</svg>
